HIERARCHY
ROOT Hips
{
	OFFSET 0.00000 0.00000 0.00000
	CHANNELS 6 Xposition Yposition Zposition Zrotation Yrotation Xrotation 
	JOINT LHipJoint
	{
		OFFSET 0 0 0
		CHANNELS 3 Zrotation Yrotation Xrotation
		JOINT LeftUpLeg
		{
			OFFSET 1.58161 -1.81893 0.78828
			CHANNELS 3 Zrotation Yrotation Xrotation
			JOINT LeftLeg
			{
				OFFSET 2.53374 -6.96141 0.00000
				CHANNELS 3 Zrotation Yrotation Xrotation
				JOINT LeftFoot
				{
					OFFSET 2.63509 -7.23986 0.00000
					CHANNELS 3 Zrotation Yrotation Xrotation
					JOINT LeftToeBase
					{
						OFFSET 0.14115 -0.38781 2.05350
						CHANNELS 3 Zrotation Yrotation Xrotation
						End Site
						{
							OFFSET 0.00000 -0.00000 1.05543
						}
					}
				}
			}
		}
	}
	JOINT RHipJoint
	{
		OFFSET 0 0 0
		CHANNELS 3 Zrotation Yrotation Xrotation
		JOINT RightUpLeg
		{
			OFFSET -1.11138 -1.81893 0.78828
			CHANNELS 3 Zrotation Yrotation Xrotation
			JOINT RightLeg
			{
				OFFSET -2.58392 -7.09926 0.00000
				CHANNELS 3 Zrotation Yrotation Xrotation
				JOINT RightFoot
				{
					OFFSET -2.66423 -7.31992 0.00000
					CHANNELS 3 Zrotation Yrotation Xrotation
					JOINT RightToeBase
					{
						OFFSET -0.18831 -0.51739 2.12114
						CHANNELS 3 Zrotation Yrotation Xrotation
						End Site
						{
							OFFSET -0.00000 -0.00000 1.09845
						}
					}
				}
			}
		}
	}
	JOINT LowerBack
	{
		OFFSET 0 0 0
		CHANNELS 3 Zrotation Yrotation Xrotation
		JOINT Spine
		{
			OFFSET -0.01511 1.97958 -0.08829
			CHANNELS 3 Zrotation Yrotation Xrotation
			JOINT Spine1
			{
				OFFSET 0.08344 1.97334 -0.04330
				CHANNELS 3 Zrotation Yrotation Xrotation
				JOINT Neck
				{
					OFFSET 0 0 0
					CHANNELS 3 Zrotation Yrotation Xrotation
					JOINT Neck1
					{
						OFFSET 0.00559 1.76246 0.31246
						CHANNELS 3 Zrotation Yrotation Xrotation
						JOINT Head
						{
							OFFSET -0.07011 1.80354 -0.30524
							CHANNELS 3 Zrotation Yrotation Xrotation
							End Site
							{
								OFFSET -0.02385 1.83547 -0.13906
							}
						}
					}
				}
				JOINT LeftShoulder
				{
					OFFSET 0 0 0
					CHANNELS 3 Zrotation Yrotation Xrotation
					JOINT LeftArm
					{
						OFFSET 3.20667 1.30156 -0.60240
						CHANNELS 3 Zrotation Yrotation Xrotation
						JOINT LeftForeArm
						{
							OFFSET 4.95663 -0.00000 0.00000
							CHANNELS 3 Zrotation Yrotation Xrotation
							JOINT LeftHand
							{
								OFFSET 3.38177 -0.00000 0.00000
								CHANNELS 3 Zrotation Yrotation Xrotation
								JOINT LeftFingerBase
								{
									OFFSET 0 0 0
									CHANNELS 3 Zrotation Yrotation Xrotation
									JOINT LeftHandIndex1
									{
										OFFSET 0.66291 -0.00000 0.00000
										CHANNELS 3 Zrotation Yrotation Xrotation
										End Site
										{
											OFFSET 0.53445 -0.00000 0.00000
										}
									}
								}
								JOINT LThumb
								{
									OFFSET 0 0 0
									CHANNELS 3 Zrotation Yrotation Xrotation
									End Site
									{
										OFFSET 0.54261 -0.00000 0.54261
									}
								}
							}
						}
					}
				}
				JOINT RightShoulder
				{
					OFFSET 0 0 0
					CHANNELS 3 Zrotation Yrotation Xrotation
					JOINT RightArm
					{
						OFFSET -3.06877 1.34672 -0.60964
						CHANNELS 3 Zrotation Yrotation Xrotation
						JOINT RightForeArm
						{
							OFFSET -5.08365 -0.00000 0.00000
							CHANNELS 3 Zrotation Yrotation Xrotation
							JOINT RightHand
							{
								OFFSET -3.35984 -0.00000 0.00000
								CHANNELS 3 Zrotation Yrotation Xrotation
								JOINT RightFingerBase
								{
									OFFSET 0 0 0
									CHANNELS 3 Zrotation Yrotation Xrotation
									JOINT RightHandIndex1
									{
										OFFSET -0.82076 -0.00000 0.00000
										CHANNELS 3 Zrotation Yrotation Xrotation
										End Site
										{
											OFFSET -0.66172 -0.00000 0.00000
										}
									}
								}
								JOINT RThumb
								{
									OFFSET 0 0 0
									CHANNELS 3 Zrotation Yrotation Xrotation
									End Site
									{
										OFFSET -0.67182 -0.00000 0.67182
									}
								}
							}
						}
					}
				}
			}
		}
	}
}
MOTION
Frames: 6
Frame Time: .0083333
1.7040 13.6611 -4.3405 -4.3607 -4.5538 19.1355 0.0000 0.0000 0.0000 -5.1418 -9.1768 -82.1071 20.3111 19.9977 90.9095 1.2937 -12.9344 -20.9625 0.0737 -1.7514 -4.8190 0.0000 0.0000 0.0000 26.1416 -14.7156 -79.5500 -25.4101 -19.2833 106.0018 -1.9292 5.5166 -25.0936 -0.3149 3.6071 -9.9738 -0.6978 7.4441 33.6856 6.0853 9.0469 15.6779 3.9074 4.0440 -0.9674 -3.4360 -4.1044 -15.3366 -9.3131 -2.2702 24.2438 -3.0153 -2.3624 10.2601 0.0000 0.0000 0.0000 -82.2162 -13.3912 63.3677 95.6103 -59.8807 -64.8567 -0.0000 -0.0000 3.2492 29.6472 11.0842 6.2446 -7.1250 0.0000 -0.0000 2.2995 42.6714 -0.1322 0.0000 0.0000 0.0000 68.7567 60.4686 22.1389 -13.9181 22.6175 -2.7965 0.0000 -0.0000 -15.7742 -40.7395 20.2495 -16.6001 7.1250 -0.0000 -0.0000 -7.6367 -4.2158 -7.1194
1.7217 13.5606 -4.3313 -4.2948 -4.5274 19.1119 0.0000 0.0000 0.0000 -5.0720 -9.3278 -82.7280 20.6950 19.9884 92.0325 1.3463 -12.7592 -21.3021 0.1187 -2.2213 -6.1176 0.0000 0.0000 0.0000 26.0299 -15.2229 -80.2507 -25.7840 -19.1782 107.1370 -1.9576 6.0189 -25.2325 -0.3324 3.7051 -10.2484 -0.7976 7.4134 33.9229 6.3253 8.9754 15.9023 4.2254 3.9865 -0.8588 -4.0620 -4.1497 -15.6557 -9.1467 -2.1752 24.3467 -2.8551 -2.3657 10.3841 0.0000 -0.0000 0.0000 -82.3077 -13.3671 63.1242 96.7454 -59.8274 -65.8383 -0.0000 -0.0000 3.1490 30.0297 10.2445 5.8696 -7.1250 0.0000 -0.0000 2.6896 41.7560 -0.2154 0.0000 -0.0000 0.0000 68.1181 61.1380 21.6620 -13.8423 22.5088 -2.7675 0.0000 -0.0000 -16.0044 -40.8753 20.3494 -16.7499 7.1250 -0.0000 -0.0000 -7.6985 -4.0531 -7.2016
1.7355 13.4592 -4.3228 -4.1752 -4.5105 19.0626 0.0000 0.0000 0.0000 -5.0887 -9.4248 -83.3386 21.0760 19.9722 93.1474 1.3994 -12.8999 -21.7036 0.1079 -2.1178 -5.8314 0.0000 0.0000 0.0000 25.8621 -15.7678 -80.9407 -26.1530 -19.0670 108.2633 -1.9872 6.4672 -25.3905 -0.3584 3.8459 -10.6436 -1.1240 7.3946 34.1981 6.6377 8.8678 15.9974 4.7319 3.8989 -0.9435 -4.8936 -4.1463 -15.6745 -8.9082 -1.9870 24.5360 -2.6166 -2.3337 10.4907 0.0000 0.0000 0.0000 -82.6656 -12.9624 62.7096 97.7942 -59.7692 -66.7447 -0.0000 -0.0000 3.2205 30.1459 9.9829 5.7489 -7.1250 0.0000 -0.0000 2.8055 41.4689 -0.2446 0.0000 0.0000 0.0000 67.6589 61.5262 21.8209 -13.8404 22.5061 -2.7667 0.0000 -0.0000 -16.4464 -40.9691 20.5066 -16.9194 7.1250 -0.0000 -0.0000 -7.7226 -3.8337 -7.2564
1.7443 13.3590 -4.3165 -4.1734 -4.4821 18.9863 0.0000 0.0000 0.0000 -4.9731 -9.4170 -83.9392 21.4553 19.9491 94.2586 1.4319 -13.2439 -21.9971 0.0737 -1.7518 -4.8202 0.0000 0.0000 0.0000 25.8344 -16.2279 -81.4966 -26.4941 -18.9573 109.3104 -2.0233 6.7624 -25.6066 -0.3570 3.8388 -10.6235 -0.3913 7.6617 34.8229 6.4036 9.3714 16.0637 3.9116 4.1832 -0.9802 -3.8405 -4.5580 -16.0143 -8.9807 -2.8053 24.5052 -2.9321 -2.6202 10.4827 0.0000 -0.0000 0.0000 -81.6116 -13.5990 63.9118 98.6620 -59.7146 -67.4943 -0.0000 -0.0000 3.0326 30.4965 9.7335 5.6864 -7.1250 0.0000 -0.0000 3.1291 41.2186 -0.2922 0.0000 -0.0000 0.0000 65.9850 61.7475 18.1960 -13.7117 22.3210 -2.7176 0.0000 -0.0000 -16.1668 -41.0118 20.8352 -17.1878 7.1250 -0.0000 -0.0000 -7.6797 -3.4226 -7.2742
1.7536 13.2617 -4.3085 -4.1559 -4.4905 18.9224 0.0000 0.0000 0.0000 -4.9161 -9.3464 -84.5275 21.8227 19.9202 95.3359 1.4431 -13.4757 -22.1209 0.0686 -1.6894 -4.6480 0.0000 0.0000 0.0000 25.7731 -16.6855 -82.0328 -26.8206 -18.8460 110.3183 -2.0398 7.1853 -25.6861 -0.3535 3.8201 -10.5712 -0.1568 7.7703 35.2440 6.4221 9.5677 16.0370 3.7115 4.2843 -1.1350 -3.3702 -4.7020 -15.4123 -9.4274 -3.1080 23.9186 -3.1611 -2.7389 10.1193 -0.0000 0.0000 0.0000 -81.0833 -13.4802 64.3832 99.8374 -59.6312 -68.5089 -0.0000 -0.0000 2.9949 31.1984 9.4885 5.7010 -7.1250 0.0000 -0.0000 3.7641 41.0070 -0.3713 -0.0000 0.0000 0.0000 65.1988 61.9212 16.4347 -13.5499 22.0875 -2.6565 0.0000 -0.0000 -15.8622 -40.9896 20.9942 -17.2929 7.1250 -0.0000 -0.0000 -7.6329 -3.2374 -7.2554
1.7677 13.1667 -4.2934 -4.0117 -4.6114 18.8370 0.0000 0.0000 0.0000 -5.0591 -9.2657 -85.0405 22.1838 19.8853 96.3969 1.4643 -13.6638 -22.3036 0.0548 -1.5111 -4.1563 0.0000 0.0000 0.0000 25.4748 -17.1885 -82.5640 -27.1555 -18.7253 111.3583 -2.0409 7.7305 -25.6659 -0.3728 3.9218 -10.8569 -0.0155 7.8977 35.6304 6.3766 9.7545 16.0346 3.5006 4.3786 -1.2488 -3.0815 -4.8650 -14.9423 -9.6073 -3.4274 23.5283 -3.2769 -2.8592 9.8620 -0.0000 -0.0000 0.0000 -80.5621 -13.3870 64.8507 100.9954 -59.5382 -69.5076 -0.0000 -0.0000 2.9820 31.6842 9.6368 5.8992 -7.1250 0.0000 -0.0000 4.1958 41.2282 -0.3911 -0.0000 -0.0000 0.0000 64.4158 62.0344 14.8221 -13.4687 21.9702 -2.6261 0.0000 -0.0000 -15.7094 -41.2029 21.0773 -17.4772 7.1250 -0.0000 -0.0000 -7.7434 -3.0693 -7.3864
